<?xml version="1.0" encoding="utf-8"?>
<!-- Generator: Adobe Illustrator 22.1.0, SVG Export Plug-In . SVG Version: 6.00 Build 0)  -->
<svg version="1.1" id="Layer_1" xmlns="http://www.w3.org/2000/svg" xmlns:xlink="http://www.w3.org/1999/xlink" x="0px" y="0px"
	 viewBox="0 0 1469 720" style="enable-background:new 0 0 1469 720;" xml:space="preserve">
<style type="text/css">
	.st0{fill:#0A2A2B;}
	.st1{fill:#0D3E42;}
	.st2{fill:#5E979F;}
	.st3{fill:#2B858D;}
	.st4{fill:#A8C2C7;}
	.st5{fill:#82ABB2;}
	.st6{opacity:0.42;}
	.st7{opacity:0;fill:#0D3E42;}
	.st8{fill:#D0DCDE;}
	.st9{fill:#2C868D;}
	.st10{opacity:0;fill:#FBBC80;}
	.st11{fill:#83ABB2;}
	.st12{opacity:0;fill:#FFE5CE;}
	.st13{fill:#FDD1A5;}
	.st14{fill:#F79535;}
	.st15{opacity:0;fill:#FDD1A5;}
</style>
<polygon class="st0" points="1467.9,720.6 976.8,720.6 -1.1,720.6 -1.1,0.6 1467.9,0.6 "/>
<polygon class="st1" points="-1.1,0.6 -1.1,181 288,0.6 "/>
<polygon class="st2" points="188.7,62.5 705.2,0.6 288,0.6 "/>
<polygon class="st2" points="-1.1,181 188.7,62.5 -1.1,443.5 "/>
<polygon class="st3" points="188.7,62.5 705.2,0.6 436.7,344.6 "/>
<polygon class="st4" points="188.7,62.5 436.7,344.6 -1.1,443.5 "/>
<polygon class="st2" points="705.2,0.6 537.4,215.5 855.6,0.6 "/>
<polygon class="st1" points="436.7,344.6 593.1,513.6 537.4,215.5 "/>
<polygon class="st1" points="537.4,215.5 924,204.4 855.6,0.6 "/>
<polygon class="st2" points="537.4,215.5 593.1,513.6 924,204.4 "/>
<polygon class="st1" points="436.7,344.6 125.7,533.4 -1.1,443.5 "/>
<polygon class="st2" points="125.7,533.4 -1.1,720.6 -1.1,443.5 "/>
<polygon class="st4" points="125.7,533.4 593.1,513.6 436.7,344.6 "/>
<polygon class="st3" points="125.7,533.4 305.5,720.6 -1.1,720.6 "/>
<polygon class="st2" points="305.5,720.6 593.1,513.6 125.7,533.4 "/>
<polygon class="st5" points="593.1,513.6 593.1,720.6 305.5,720.6 "/>
<polygon class="st3" points="924,204.4 1022.8,0.6 855.6,0.6 "/>
<polygon class="st4" points="924,204.4 1069.6,253 1022.8,0.6 "/>
<polygon class="st3" points="924,204.4 673,439 1069.6,253 "/>
<polygon class="st4" points="673,439 593.1,720.6 593.1,513.6 "/>
<polygon class="st1" points="673,439 1069.6,253 593.1,720.6 "/>
<polygon class="st5" points="1069.6,253 1238.9,0.6 1022.8,0.6 "/>
<polygon class="st3" points="952.3,368.1 976.8,720.6 593.1,720.6 "/>
<polygon class="st4" points="952.3,368.1 1069.6,253 976.8,720.6 "/>
<polygon class="st1" points="1069.6,253 1467.9,0.6 1238.9,0.6 "/>
<polygon class="st1" points="1069.6,253 1229.8,513.6 976.8,720.6 "/>
<polygon class="st2" points="1069.6,253 1229.8,513.6 1285.2,116.3 "/>
<polygon class="st4" points="1285.2,116.3 1467.9,244.5 1467.9,0.6 "/>
<polygon class="st3" points="1467.9,244.5 1250.6,364.6 1285.2,116.3 "/>
<polygon class="st4" points="1467.9,244.5 1229.8,513.6 1250.6,364.6 "/>
<polygon class="st2" points="1229.8,513.6 1467.9,720.6 1467.9,244.5 "/>
<polygon class="st4" points="1229.8,513.6 976.8,720.6 1467.9,720.6 "/>
<g class="st6">
	<polygon class="st1" points="1470.6,720 1470.6,676.4 1470.6,676.4 1400.7,720 1400.7,720 	"/>
	<line class="st7" x1="1470.6" y1="676.4" x2="1400.7" y2="720"/>
	<polygon class="st8" points="1376,720 748.9,720 1043.7,342.1 	"/>
	<polyline class="st9" points="1376,720 1043.7,342.1 1470.6,245.6 	"/>
	<polyline class="st10" points="748.9,720 905.3,519.5 608.5,720 	"/>
	<polygon class="st1" points="1043.7,342.1 828.6,109.7 905.3,519.5 	"/>
	<polyline class="st1" points="608.5,720 905.3,519.5 373.7,534.9 435.8,720 490.1,720 608.5,720 	"/>
	<polygon class="st11" points="905.3,519.5 828.6,109.7 373.7,534.9 	"/>
	<polyline class="st1" points="1470.6,245.6 1043.7,342.1 1471.4,82.5 	"/>
	<polygon class="st12" points="1471.4,82.5 828.6,109.7 1043.7,342.1 	"/>
	<polygon class="st8" points="1471.4,82.5 1392.2,0 1470.6,0 1470.6,0 1470.6,0 	"/>
	<polygon class="st11" points="1225.1,0 981.1,0 828.6,109.7 1471.4,82.5 1392.2,0 	"/>
	<polyline class="st1" points="981.1,0 828.6,109.7 828.6,0 	"/>
	<polyline class="st9" points="435.8,720 373.7,534.9 283.9,720 	"/>
	<polyline class="st12" points="283.9,720 373.7,534.9 173.5,468 220.1,720 	"/>
	<polygon class="st9" points="373.7,534.9 718.9,212.3 173.5,468 	"/>
	<polyline class="st12" points="828.6,0 828.6,109.7 718.9,212.3 779.1,0 	"/>
	<polyline class="st11" points="779.1,0 718.9,212.3 173.5,468 650.4,0 	"/>
	<path class="st13" d="M220.1,720"/>
	<polyline class="st11" points="220.1,720 173.5,468 1.6,720 	"/>
	<polygon class="st9" points="334.8,309.7 313.3,0 650.4,0 	"/>
	<path class="st12" d="M313.3,0"/>
	<path class="st12" d="M266.4,0"/>
	<polyline class="st12" points="313.3,0 334.8,309.7 173.5,468 266.4,0 	"/>
	<polyline class="st1" points="1.6,720 173.5,468 0.9,575.6 	"/>
	<path class="st14" d="M1.6,724.3"/>
	<path class="st14" d="M0.9,577.4"/>
	<polyline class="st1" points="1.6,70 87.3,0 212.7,0 266.4,0 173.5,468 1.6,188.4 	"/>
	<path class="st14" d="M1.6,70"/>
	<path class="st14" d="M1.6,188.4"/>
	<polyline class="st15" points="0.9,577.4 173.5,468 1.6,188.4 	"/>
	<line class="st12" x1="1.6" y1="70" x2="87.3" y2="0"/>
	<path class="st12" d="M1.6,70"/>
	<path class="st12" d="M87.3,0"/>
</g>
</svg>
