<?xml version="1.0" encoding="utf-8"?>
<!-- Generator: Adobe Illustrator 22.1.0, SVG Export Plug-In . SVG Version: 6.00 Build 0)  -->
<svg version="1.1" id="Layer_1" xmlns="http://www.w3.org/2000/svg" xmlns:xlink="http://www.w3.org/1999/xlink" x="0px" y="0px"
	 viewBox="0 0 1280 600" style="enable-background:new 0 0 1280 600;" xml:space="preserve">
<style type="text/css">
	.st0{fill:#0B2A2C;}
	.st1{fill:#0F3F43;}
	.st2{fill:#5E979F;}
	.st3{fill:#2D858D;}
	.st4{fill:#A8C2C7;}
	.st5{fill:#83ABB2;}
	.st6{opacity:0.42;}
	.st7{opacity:0;fill:#0F3F43;}
	.st8{fill:#D1DCDE;}
	.st9{fill:#2E878E;}
	.st10{opacity:0;fill:#FABC7F;}
	.st11{fill:#84ABB2;}
	.st12{opacity:0;fill:#FEE5CE;}
	.st13{fill:#FED2A5;}
	.st14{fill:#F89635;}
	.st15{opacity:0;fill:#FED2A5;}
</style>
<polygon class="st0" points="1414.9,702 923.8,702 -54.1,702 -54.1,-18 1414.9,-18 "/>
<polygon class="st1" points="-54.1,-18 -54.1,162.4 235,-18 "/>
<polygon class="st2" points="135.8,44 652.2,-18 235,-18 "/>
<polygon class="st2" points="-54.1,162.4 135.8,44 -54.1,424.9 "/>
<polygon class="st3" points="135.8,44 652.2,-18 383.8,326.1 "/>
<polygon class="st4" points="135.8,44 383.8,326.1 -54.1,424.9 "/>
<polygon class="st2" points="652.2,-18 484.4,197 802.7,-18 "/>
<polygon class="st1" points="383.8,326.1 540.2,495.1 484.4,197 "/>
<polygon class="st1" points="484.4,197 871,185.8 802.7,-18 "/>
<polygon class="st2" points="484.4,197 540.2,495.1 871,185.8 "/>
<polygon class="st1" points="383.8,326.1 72.7,514.8 -54.1,424.9 "/>
<polygon class="st2" points="72.7,514.8 -54.1,702 -54.1,424.9 "/>
<polygon class="st4" points="72.7,514.8 540.2,495.1 383.8,326.1 "/>
<polygon class="st3" points="72.7,514.8 252.5,702 -54.1,702 "/>
<polygon class="st2" points="252.5,702 540.2,495.1 72.7,514.8 "/>
<polygon class="st5" points="540.2,495.1 540.2,702 252.5,702 "/>
<polygon class="st3" points="871,185.8 969.9,-18 802.7,-18 "/>
<polygon class="st4" points="871,185.8 1016.6,234.4 969.9,-18 "/>
<polygon class="st3" points="871,185.8 620,420.4 1016.6,234.4 "/>
<polygon class="st4" points="620,420.4 540.2,702 540.2,495.1 "/>
<polygon class="st1" points="620,420.4 1016.6,234.4 540.2,702 "/>
<polygon class="st5" points="1016.6,234.4 1185.9,-18 969.9,-18 "/>
<polygon class="st3" points="899.3,349.6 923.8,702 540.2,702 "/>
<polygon class="st4" points="899.3,349.6 1016.6,234.4 923.8,702 "/>
<polygon class="st1" points="1016.6,234.4 1414.9,-18 1185.9,-18 "/>
<polygon class="st1" points="1016.6,234.4 1176.8,495.1 923.8,702 "/>
<polygon class="st2" points="1016.6,234.4 1176.8,495.1 1232.3,97.8 "/>
<polygon class="st4" points="1232.3,97.8 1414.9,225.9 1414.9,-18 "/>
<polygon class="st3" points="1414.9,225.9 1197.6,346 1232.3,97.8 "/>
<polygon class="st4" points="1414.9,225.9 1176.8,495.1 1197.6,346 "/>
<polygon class="st2" points="1176.8,495.1 1414.9,702 1414.9,225.9 "/>
<polygon class="st4" points="1176.8,495.1 923.8,702 1414.9,702 "/>
<g class="st6">
	<polygon class="st1" points="1417.7,701.4 1417.7,657.8 1417.7,657.8 1347.8,701.4 1347.8,701.4 	"/>
	<line class="st7" x1="1417.7" y1="657.8" x2="1347.8" y2="701.4"/>
	<polygon class="st8" points="1323,701.4 695.9,701.4 990.7,323.5 	"/>
	<polyline class="st9" points="1323,701.4 990.7,323.5 1417.7,227.1 	"/>
	<polyline class="st10" points="695.9,701.4 852.3,501 555.6,701.4 	"/>
	<polygon class="st1" points="990.7,323.5 775.7,91.1 852.3,501 	"/>
	<polyline class="st1" points="555.6,701.4 852.3,501 320.8,516.4 382.8,701.4 437.2,701.4 555.6,701.4 	"/>
	<polygon class="st11" points="852.3,501 775.7,91.1 320.8,516.4 	"/>
	<polyline class="st1" points="1417.7,227.1 990.7,323.5 1418.5,63.9 	"/>
	<polygon class="st12" points="1418.5,63.9 775.7,91.1 990.7,323.5 	"/>
	<polygon class="st8" points="1418.5,63.9 1339.3,-18.6 1417.7,-18.6 1417.7,-18.6 1417.7,-18.6 	"/>
	<polygon class="st11" points="1172.1,-18.6 928.1,-18.6 775.7,91.1 1418.5,63.9 1339.3,-18.6 	"/>
	<polyline class="st1" points="928.1,-18.6 775.7,91.1 775.7,-18.6 	"/>
	<polyline class="st9" points="382.8,701.4 320.8,516.4 231,701.4 	"/>
	<polyline class="st12" points="231,701.4 320.8,516.4 120.5,449.5 167.2,701.4 	"/>
	<polygon class="st9" points="320.8,516.4 665.9,193.7 120.5,449.5 	"/>
	<polyline class="st12" points="775.7,-18.6 775.7,91.1 665.9,193.7 726.1,-18.6 	"/>
	<polyline class="st11" points="726.1,-18.6 665.9,193.7 120.5,449.5 597.4,-18.6 	"/>
	<path class="st13" d="M167.2,701.4"/>
	<polyline class="st11" points="167.2,701.4 120.5,449.5 -51.3,701.4 	"/>
	<polygon class="st9" points="281.9,291.1 260.3,-18.6 597.4,-18.6 	"/>
	<path class="st12" d="M260.3-18.6"/>
	<path class="st12" d="M213.4-18.6"/>
	<polyline class="st12" points="260.3,-18.6 281.9,291.1 120.5,449.5 213.4,-18.6 	"/>
	<polyline class="st1" points="-51.3,701.4 120.5,449.5 -52.1,557 	"/>
	<path class="st14" d="M-51.3,705.8"/>
	<path class="st14" d="M-52.1,558.9"/>
	<polyline class="st1" points="-51.3,51.5 34.3,-18.6 159.7,-18.6 213.4,-18.6 120.5,449.5 -51.3,169.9 	"/>
	<path class="st14" d="M-51.3,51.5"/>
	<path class="st14" d="M-51.3,169.9"/>
	<polyline class="st15" points="-52.1,558.9 120.5,449.5 -51.3,169.9 	"/>
	<line class="st12" x1="-51.3" y1="51.5" x2="34.3" y2="-18.6"/>
	<path class="st12" d="M-51.3,51.5"/>
	<path class="st12" d="M34.3-18.6"/>
</g>
</svg>
