<svg xmlns="http://www.w3.org/2000/svg" viewBox="0 0 430.77 430.77"><defs><style>.cls-1,.cls-3,.cls-4{fill:#fff;}.cls-1,.cls-2,.cls-3,.cls-4,.cls-5,.cls-6{stroke:#231f20;}.cls-1,.cls-2,.cls-3,.cls-5{stroke-miterlimit:10;}.cls-1{stroke-width:30.77px;}.cls-2{fill:#231f20;stroke-width:11.58px;}.cls-3,.cls-5,.cls-6{stroke-width:13.3px;}.cls-4,.cls-5,.cls-6{stroke-linecap:round;}.cls-4,.cls-6{stroke-linejoin:round;}.cls-4{stroke-width:15.2px;}.cls-5,.cls-6{fill:none;}</style></defs><title>Asset 1</title><g id="Layer_2" data-name="Layer 2"><g id="Layer_1-2" data-name="Layer 1"><circle class="cls-1" cx="215.38" cy="215.38" r="200"/><rect class="cls-2" x="187.32" y="290.9" width="56.12" height="17.02"/><path class="cls-3" d="M187.32,323.09h56.12a0,0,0,0,1,0,0v20.22a9.12,9.12,0,0,1-9.12,9.12H196.44a9.12,9.12,0,0,1-9.12-9.12V323.09a0,0,0,0,1,0,0Z"/><path class="cls-4" d="M300.72,168.55a85.34,85.34,0,1,0-147.67,58.28h0l24,45.7h0a14.64,14.64,0,0,0,13.52,9.16h48.06a14.64,14.64,0,0,0,13.52-9.16h.35L274.8,229.8h0A85.06,85.06,0,0,0,300.72,168.55Z"/><line class="cls-5" x1="243.44" y1="201.41" x2="227.51" y2="281.69"/><polyline class="cls-6" points="205.53 280.01 189.59 199.74 203.03 215.42 215.38 196.56 225.83 212.31 244.98 193.83 239.64 220.56"/></g></g></svg>